<svg xmlns="http://www.w3.org/2000/svg" width="1em" height="1em" viewBox="0 0 56 56"><path fill="currentColor" fillRule="evenodd" d="m49.336 12.768l1.152 4.298a3.2 3.2 0 0 1-.967 3.22l-.155.13a5.001 5.001 0 0 0 2.218 8.87l.216.033a3.077 3.077 0 0 1 2.575 2.255l1.173 4.376a4 4 0 0 1-2.828 4.9L12.15 51.72a4 4 0 0 1-4.898-2.829l-1.103-4.117a3.485 3.485 0 0 1 .997-3.459l.163-.14a5.001 5.001 0 0 0-2.37-8.813a3.46 3.46 0 0 1-2.791-2.52L1.04 25.709a4 4 0 0 1 2.83-4.899L44.437 9.94a4 4 0 0 1 4.9 2.828m-4.165.607L4.951 24.152c-.555.149-.885.72-.736 1.275l.791 2.953a9.368 9.368 0 0 1 7.2 6.76a9.368 9.368 0 0 1-2.855 9.455l.791 2.953c.15.555.72.885 1.275.736l40.22-10.777c.555-.149.885-.72.736-1.275l-.79-2.952a9.369 9.369 0 0 1-7.2-6.761a9.368 9.368 0 0 1 2.854-9.455l-.791-2.953a1.041 1.041 0 0 0-1.275-.736m-1.283 21.559a3 3 0 1 1-5.796 1.552a3 3 0 0 1 5.796-1.552m-2.07-7.728a3 3 0 1 1-5.796 1.553a3 3 0 0 1 5.795-1.553m-2.071-7.727a3 3 0 1 1-5.796 1.553a3 3 0 0 1 5.796-1.553M29.383 6.347l2.552 3.644c.037.054.073.109.107.164L7.627 16.697L23.812 5.364a4 4 0 0 1 5.57.983"/></svg>