<svg xmlns="http://www.w3.org/2000/svg" width="1em" height="1em" viewBox="0 0 16 16"><path fill="currentColor" d="M8 8.5c-.08 0-.15-.02-.22-.05L1.28 5.2a.5.5 0 0 1 0-.9l6.5-3.25c.14-.07.31-.07.45 0l6.5 3.25a.5.5 0 0 1 0 .9l-6.5 3.25c-.07.04-.15.05-.22.05ZM2.62 4.75L8 7.44l5.38-2.69L8 2.06z"/><path fill="currentColor" d="M8 11.75c-.08 0-.15-.02-.22-.05l-6.5-3.25a.5.5 0 0 1 0-.9l3.25-1.62c.25-.12.55-.02.67.22c.12.25.02.55-.22.67L2.62 8L8 10.69L13.38 8l-2.36-1.18a.49.49 0 0 1-.22-.67c.12-.25.42-.35.67-.22l3.25 1.62a.5.5 0 0 1 0 .9l-6.5 3.25c-.07.04-.15.05-.22.05"/><path fill="currentColor" d="M8 15c-.08 0-.15-.02-.22-.05l-6.5-3.25a.5.5 0 0 1 0-.9l3.25-1.62c.25-.12.55-.02.67.22c.12.25.02.55-.22.67l-2.36 1.18L8 13.94l5.38-2.69l-2.36-1.18a.49.49 0 0 1-.22-.67c.12-.25.42-.35.67-.22l3.25 1.62a.5.5 0 0 1 0 .9l-6.5 3.25c-.07.04-.15.05-.22.05"/></svg>